<svg width="13" height="8" viewBox="0 0 13 8" fill="none" xmlns="http://www.w3.org/2000/svg">
<path d="M12.5685 6.90374C12.3935 7.07949 12.1561 7.17822 11.9085 7.17822C11.661 7.17822 11.4236 7.07949 11.2486 6.90374L6.62799 2.26311L2.00738 6.90374C1.83133 7.07451 1.59554 7.169 1.35079 7.16687C1.10604 7.16473 0.871919 7.06614 0.698849 6.89232C0.525779 6.7185 0.427608 6.48336 0.425482 6.23755C0.423355 5.99174 0.517443 5.75493 0.687479 5.57811L5.96804 0.274673C6.14309 0.098919 6.38047 0.00018558 6.62799 0.000185558C6.87551 0.000185537 7.11289 0.0989189 7.28794 0.274673L12.5685 5.57811C12.7435 5.75392 12.8418 5.99233 12.8418 6.24092C12.8418 6.48951 12.7435 6.72793 12.5685 6.90374Z" fill="#E45B74"/>
</svg>
