<svg width="15" height="15" viewBox="0 0 15 15" fill="none" xmlns="http://www.w3.org/2000/svg">
<path d="M13.4662 4.96223C13.2904 4.78648 13.052 4.68774 12.8034 4.68774C12.5548 4.68774 12.3164 4.78648 12.1406 4.96223L7.49999 9.60286L2.85936 4.96223C2.68255 4.79146 2.44573 4.69696 2.19992 4.6991C1.95411 4.70124 1.71898 4.79983 1.54515 4.97365C1.37133 5.14747 1.27274 5.38261 1.2706 5.62842C1.26847 5.87423 1.36296 6.11104 1.53374 6.28786L6.83717 11.5913C7.01298 11.767 7.25139 11.8658 7.49999 11.8658C7.74858 11.8658 7.98699 11.767 8.1628 11.5913L13.4662 6.28786C13.642 6.11205 13.7407 5.87364 13.7407 5.62504C13.7407 5.37645 13.642 5.13804 13.4662 4.96223Z" fill="#231610"/>
</svg>
