<svg width="27" height="16" viewBox="0 0 27 16" fill="none" xmlns="http://www.w3.org/2000/svg">
<path d="M7.80963 5.25L13.926 8.45833L20.0423 5.25" stroke="#E45B74" stroke-width="1.5" stroke-linecap="round" stroke-linejoin="round"/>
<path d="M1.6933 12.5833V3.41659C1.6933 2.93035 1.95106 2.46404 2.40987 2.12022C2.86869 1.77641 3.49098 1.58325 4.13984 1.58325H23.7122C24.361 1.58325 24.9833 1.77641 25.4421 2.12022C25.901 2.46404 26.1587 2.93035 26.1587 3.41659V12.5833C26.1587 13.0695 25.901 13.5358 25.4421 13.8796C24.9833 14.2234 24.361 14.4166 23.7122 14.4166H4.13984C3.49098 14.4166 2.86869 14.2234 2.40987 13.8796C1.95106 13.5358 1.6933 13.0695 1.6933 12.5833Z" stroke="#E45B74" stroke-width="1.5"/>
</svg>
