<svg width="31" height="24" viewBox="0 0 31 24" fill="none" xmlns="http://www.w3.org/2000/svg">
<path d="M15.44 5.98096C14.6826 5.98096 13.9423 6.1569 13.3125 6.48655C12.6828 6.81619 12.192 7.28473 11.9022 7.83291C11.6123 8.38109 11.5365 8.98428 11.6842 9.56623C11.832 10.1482 12.1967 10.6827 12.7323 11.1023C13.2678 11.5218 13.9501 11.8076 14.693 11.9233C15.4358 12.0391 16.2057 11.9797 16.9055 11.7526C17.6052 11.5255 18.2033 11.141 18.624 10.6477C19.0448 10.1543 19.2694 9.5743 19.2694 8.98096C19.2682 8.18559 18.8644 7.42305 18.1465 6.86064C17.4286 6.29822 16.4553 5.98186 15.44 5.98096ZM15.44 10.481C15.0613 10.481 14.6912 10.393 14.3763 10.2282C14.0614 10.0633 13.816 9.82907 13.6711 9.55498C13.5262 9.28089 13.4883 8.97929 13.5621 8.68832C13.636 8.39735 13.8184 8.13008 14.0861 7.9203C14.3539 7.71052 14.6951 7.56766 15.0665 7.50978C15.4379 7.4519 15.8229 7.48161 16.1727 7.59514C16.5226 7.70867 16.8216 7.90093 17.032 8.1476C17.2424 8.39428 17.3547 8.68428 17.3547 8.98096C17.3541 9.37864 17.1522 9.75991 16.7933 10.0411C16.4343 10.3223 15.9477 10.4805 15.44 10.481Z" fill="#E45B74"/>
<path d="M22.7985 3.21158C20.9791 1.7866 18.5505 0.940103 15.9813 0.835465C13.4121 0.730828 10.8845 1.37547 8.88627 2.64497C6.88808 3.91447 5.56096 5.71883 5.16106 7.70981C4.76116 9.7008 5.31682 11.7373 6.7208 13.4262L13.9551 22.1268C14.1161 22.3204 14.3363 22.4794 14.5956 22.5895C14.8549 22.6997 15.1451 22.7573 15.4401 22.7573C15.735 22.7573 16.0253 22.6997 16.2846 22.5895C16.5439 22.4794 16.764 22.3204 16.925 22.1268L24.1596 13.4262C25.4623 11.8595 26.038 9.98955 25.7902 8.12986C25.5424 6.27017 24.4862 4.53373 22.7985 3.21158ZM22.5553 12.6074L15.4401 21.1644L8.32483 12.6074C6.14688 9.98806 6.614 6.48275 9.43553 4.27222C10.2241 3.65446 11.1602 3.16442 12.1904 2.83009C13.2207 2.49576 14.3249 2.32368 15.4401 2.32368C16.5553 2.32368 17.6595 2.49576 18.6898 2.83009C19.72 3.16442 20.6561 3.65446 21.4447 4.27222C24.2662 6.48275 24.7333 9.98806 22.5553 12.6074Z" fill="#E45B74"/>
</svg>
