<svg width="16" height="19" viewBox="0 0 16 19" fill="none" xmlns="http://www.w3.org/2000/svg">
<path d="M12.9205 1.1875C13.3225 1.1875 13.708 1.31261 13.9923 1.53531C14.2766 1.75801 14.4363 2.06006 14.4363 2.375V16.625C14.4363 16.9399 14.2766 17.242 13.9923 17.4647C13.708 17.6874 13.3225 17.8125 12.9205 17.8125H3.82571C3.4237 17.8125 3.03815 17.6874 2.75389 17.4647C2.46962 17.242 2.30992 16.9399 2.30992 16.625V2.375C2.30992 2.06006 2.46962 1.75801 2.75389 1.53531C3.03815 1.31261 3.4237 1.1875 3.82571 1.1875H12.9205ZM3.82571 0C3.02169 0 2.25059 0.250223 1.68206 0.695621C1.11353 1.14102 0.794128 1.74511 0.794128 2.375V16.625C0.794128 17.2549 1.11353 17.859 1.68206 18.3044C2.25059 18.7498 3.02169 19 3.82571 19H12.9205C13.7245 19 14.4956 18.7498 15.0641 18.3044C15.6327 17.859 15.952 17.2549 15.952 16.625V2.375C15.952 1.74511 15.6327 1.14102 15.0641 0.695621C14.4956 0.250223 13.7245 0 12.9205 0L3.82571 0Z" fill="#E45B74"/>
<path d="M8.37309 16.625C8.77511 16.625 9.16065 16.4999 9.44492 16.2772C9.72918 16.0545 9.88888 15.7524 9.88888 15.4375C9.88888 15.1226 9.72918 14.8205 9.44492 14.5978C9.16065 14.3751 8.77511 14.25 8.37309 14.25C7.97108 14.25 7.58553 14.3751 7.30127 14.5978C7.017 14.8205 6.8573 15.1226 6.8573 15.4375C6.8573 15.7524 7.017 16.0545 7.30127 16.2772C7.58553 16.4999 7.97108 16.625 8.37309 16.625Z" fill="#E45B74"/>
</svg>
